<svg width="31" height="31" viewBox="0 0 31 31" fill="none" xmlns="http://www.w3.org/2000/svg">
<path fill-rule="evenodd" clip-rule="evenodd" d="M5.16667 5.16669C3.73993 5.16669 2.58333 6.32328 2.58333 7.75002V10.3334H5.16667V9.57671L14.1301 18.5401C14.8867 19.2968 16.1135 19.2968 16.8701 18.5401L25.8333 9.57691V23.25H5.16667V21.9584H2.58333V23.25C2.58333 24.6768 3.73993 25.8334 5.16667 25.8334H25.8333C27.2601 25.8334 28.4167 24.6768 28.4167 23.25V7.75002C28.4167 6.32328 27.2601 5.16669 25.8333 5.16669H5.16667ZM24.0068 7.75002H6.99336L15.5001 16.2568L24.0068 7.75002Z" fill="#C7CAD1"/>
<path d="M2.58333 12.9167C1.86997 12.9167 1.29167 13.495 1.29167 14.2084C1.29167 14.9217 1.86997 15.5 2.58333 15.5H6.45833C7.1717 15.5 7.75 14.9217 7.75 14.2084C7.75 13.495 7.1717 12.9167 6.45833 12.9167H2.58333Z" fill="#C7CAD1"/>
<path d="M0 18.0834C0 17.37 0.578299 16.7917 1.29167 16.7917H7.75C8.46337 16.7917 9.04167 17.37 9.04167 18.0834C9.04167 18.7967 8.46337 19.375 7.75 19.375H1.29167C0.578299 19.375 0 18.7967 0 18.0834Z" fill="#C7CAD1"/>
</svg>
