<svg width="562" height="562" viewBox="0 0 562 562" fill="none" xmlns="http://www.w3.org/2000/svg">
<path d="M209.255 352.745C201.364 347.484 195.787 299.402 199.144 235.996C284.888 228.873 407.644 231.951 561.958 276.107C561.986 277.735 562 279.366 562 281C562 324.504 552.114 365.699 534.465 402.461C432.638 360.422 324.206 358.39 261.376 357.213C233.533 356.692 214.645 356.338 209.255 352.745Z" fill="#A60308"/>
<path d="M495.693 462.304C444.148 523.28 367.096 562 281 562C125.808 562 0 436.192 0 281C0 168.453 66.1668 71.3594 161.723 26.4977C144.446 87.1528 134.286 142.274 129.202 190.947C89.4963 199.749 62.4869 209.738 47.8296 215.234C23.9147 224.202 35.8721 261.356 65.7657 257.085C70.3931 256.424 76.9938 255.041 85.5115 253.257L85.5148 253.256C95.9682 251.066 109.308 248.271 125.431 245.464C121.657 362.796 149.042 430.468 167.404 430.468C170.67 430.468 176.221 430.254 183.682 429.966L183.691 429.966C236.395 427.932 384.369 422.222 495.693 462.304Z" fill="#A60308"/>
<path d="M254.71 1.21363C227.419 54.5356 211.983 119.295 204.349 178.657C288.015 169.451 403.228 170.629 551.306 203.952C517.811 86.2189 409.474 0 281 0C272.135 0 263.365 0.410535 254.71 1.21363Z" fill="#A60308"/>
</svg>
