<svg>

<symbol id = "logo" width="34" height="34" viewBox="0 0 562 562" fill="none" xmlns="http://www.w3.org/2000/svg">
<path d="M209.255 352.745C201.364 347.484 195.787 299.402 199.144 235.996C284.888 228.873 407.644 231.951 561.958 276.107C561.986 277.735 562 279.366 562 281C562 324.504 552.114 365.699 534.465 402.461C432.638 360.422 324.206 358.39 261.376 357.213C233.533 356.692 214.645 356.338 209.255 352.745Z" fill="#A60308"/>
<path d="M495.693 462.304C444.148 523.28 367.096 562 281 562C125.808 562 0 436.192 0 281C0 168.453 66.1668 71.3594 161.723 26.4977C144.446 87.1528 134.286 142.274 129.202 190.947C89.4963 199.749 62.4869 209.738 47.8296 215.234C23.9147 224.202 35.8721 261.356 65.7657 257.085C70.3931 256.424 76.9938 255.041 85.5115 253.257L85.5148 253.256C95.9682 251.066 109.308 248.271 125.431 245.464C121.657 362.796 149.042 430.468 167.404 430.468C170.67 430.468 176.221 430.254 183.682 429.966L183.691 429.966C236.395 427.932 384.369 422.222 495.693 462.304Z" fill="#A60308"/>
<path d="M254.71 1.21363C227.419 54.5356 211.983 119.295 204.349 178.657C288.015 169.451 403.228 170.629 551.306 203.952C517.811 86.2189 409.474 0 281 0C272.135 0 263.365 0.410535 254.71 1.21363Z" fill="#A60308"/>
</symbol>

<symbol id = "instagram" width="32" height="32" viewBox="0 0 32 32" fill="none" xmlns="http://www.w3.org/2000/svg">
<circle cx="16" cy="16" r="16" fill="url(#paint0_linear_257_1364)"/>
<path d="M21.2646 9.60001H11.5354C10.4369 9.60001 9.60001 10.4369 9.60001 11.5354V21.2646C9.60001 22.3631 10.4369 23.2 11.5354 23.2H21.2646C22.3631 23.2 23.2 22.3631 23.2 21.2646V11.5354C23.2 10.4369 22.3631 9.60001 21.2646 9.60001ZM16.4 20.48C18.6492 20.48 20.48 18.7015 20.48 16.5569C20.48 16.1908 20.4277 15.7723 20.3231 15.4585H21.4739V21.0031C21.4739 21.2646 21.2646 21.5262 20.9508 21.5262H11.8492C11.5877 21.5262 11.3262 21.3169 11.3262 21.0031V15.4062H12.5292C12.4246 15.7723 12.3723 16.1385 12.3723 16.5046C12.32 18.7015 14.1508 20.48 16.4 20.48ZM16.4 18.9108C14.9354 18.9108 13.7846 17.76 13.7846 16.3477C13.7846 14.9354 14.9354 13.7846 16.4 13.7846C17.8646 13.7846 19.0154 14.9354 19.0154 16.3477C19.0154 17.8123 17.8646 18.9108 16.4 18.9108ZM21.4215 13.3139C21.4215 13.6277 21.16 13.8892 20.8462 13.8892H19.3815C19.0677 13.8892 18.8062 13.6277 18.8062 13.3139V11.9015C18.8062 11.5877 19.0677 11.3262 19.3815 11.3262H20.8462C21.16 11.3262 21.4215 11.5877 21.4215 11.9015V13.3139Z" fill="white"/>
<defs>
<linearGradient id="paint0_linear_257_1364" x1="6.8" y1="28.4" x2="28" y2="6.4" gradientUnits="userSpaceOnUse">
<stop stop-color="#EEA054"/>
<stop offset="0.502762" stop-color="#D64763"/>
<stop offset="1" stop-color="#B62A99"/>
</linearGradient>
</defs>
</symbol>

<symbol id = "whatsapp" width="32" height="32" viewBox="0 0 21 22" fill="rgba(238, 160, 84, 1)" xmlns="http://www.w3.org/2000/svg">
<path d="M17.7561 3.63334C15.7993 1.68334 13.1902 0.600006 10.4362 0.600006C4.7108 0.600006 0.0724728 5.22223 0.0724728 10.9278C0.0724728 12.7333 0.579791 14.5389 1.44948 16.0556L0 21.4L5.50802 19.9556C7.02997 20.75 8.69686 21.1833 10.4362 21.1833C16.1617 21.1833 20.8 16.5611 20.8 10.8556C20.7275 8.18334 19.7129 5.58334 17.7561 3.63334ZM15.4369 14.6111C15.2195 15.1889 14.2049 15.7667 13.6976 15.8389C13.2627 15.9111 12.6829 15.9111 12.1031 15.7667C11.7408 15.6222 11.2334 15.4778 10.6537 15.1889C8.0446 14.1056 6.3777 11.5056 6.23275 11.2889C6.08781 11.1444 5.14565 9.91667 5.14565 8.61667C5.14565 7.31667 5.79791 6.73889 6.01533 6.45C6.23275 6.16112 6.52265 6.16112 6.74007 6.16112C6.88502 6.16112 7.10244 6.16112 7.24738 6.16112C7.39233 6.16112 7.60975 6.08889 7.82718 6.59445C8.0446 7.10001 8.55191 8.40001 8.62439 8.47223C8.69686 8.61667 8.69686 8.76112 8.62439 8.90556C8.55191 9.05001 8.47944 9.19445 8.33449 9.33889C8.18954 9.48334 8.0446 9.7 7.97212 9.77223C7.82717 9.91667 7.68223 10.0611 7.82718 10.2778C7.97212 10.5667 8.47944 11.3611 9.27665 12.0833C10.2913 12.95 11.0885 13.2389 11.3784 13.3833C11.6683 13.5278 11.8132 13.4556 11.9582 13.3111C12.1031 13.1667 12.6105 12.5889 12.7554 12.3C12.9003 12.0111 13.1178 12.0833 13.3352 12.1556C13.5526 12.2278 14.8571 12.8778 15.0746 13.0222C15.3645 13.1667 15.5094 13.2389 15.5819 13.3111C15.6544 13.5278 15.6544 14.0333 15.4369 14.6111Z" fill="#48D107"/>
</symbol>

<symbol id = "youtube" width="32" height="32" viewBox="0 0 32 32" fill="none" xmlns="http://www.w3.org/2000/svg">
<circle cx="16" cy="16" r="16" fill="#F40000"/>
<path d="M22.9705 15.1305C22.9705 14.8202 22.9188 14.4582 22.9188 14.0445C22.8671 13.6307 22.8153 13.217 22.7636 12.855C22.6602 12.4412 22.505 12.1309 22.1947 11.8723C21.9361 11.6138 21.5741 11.4586 21.2121 11.4069C20.0226 11.2517 18.2642 11.2 15.8852 11.2C13.5063 11.2 11.6961 11.2517 10.5584 11.4069C10.1963 11.4586 9.83433 11.6138 9.57575 11.8723C9.31716 12.1309 9.11029 12.4412 9.00685 12.855C8.90342 13.217 8.85171 13.579 8.85171 14.0445C8.79999 14.4582 8.79999 14.8202 8.79999 15.1305C8.79999 15.4408 8.79999 15.8028 8.79999 16.32C8.79999 16.8372 8.79999 17.2509 8.79999 17.5095C8.79999 17.8198 8.85171 18.1818 8.85171 18.5956C8.90343 19.0093 8.95514 19.423 9.00685 19.7851C9.11029 20.1988 9.26544 20.5091 9.57575 20.7677C9.83433 21.0263 10.1963 21.1814 10.5584 21.2331C11.7479 21.3883 13.5063 21.44 15.8852 21.44C18.2642 21.44 20.0743 21.3883 21.2121 21.2331C21.5741 21.1814 21.9361 21.0263 22.1947 20.7677C22.4533 20.5091 22.6602 20.1988 22.7636 19.7851C22.8671 19.423 22.9188 19.061 22.9188 18.5956C22.9705 18.1818 22.9705 17.8198 22.9705 17.5095C22.9705 17.1992 22.9705 16.8372 22.9705 16.32C22.9705 15.8028 22.9705 15.3891 22.9705 15.1305ZM18.6263 16.7337L14.5406 19.2679C14.4889 19.3196 14.3854 19.3713 14.282 19.3713C14.1786 19.3713 14.1269 19.3713 14.0234 19.3196C13.8683 19.2162 13.7648 19.061 13.7648 18.8542V13.7342C13.7648 13.5273 13.8683 13.3721 14.0234 13.2687C14.1786 13.1653 14.3854 13.1653 14.5406 13.2687L18.6263 15.8028C18.7814 15.9063 18.8848 16.0614 18.8848 16.2166C18.8848 16.3717 18.7814 16.6303 18.6263 16.7337Z" fill="white"/>
</symbol>

<symbol id = "phone" width="18" height="18" viewBox="0 0 18 18" fill="none" xmlns="http://www.w3.org/2000/svg">
<path d="M6.366 7.682C7.30434 9.33048 8.66952 10.6957 10.318 11.634L11.202 10.396C11.3442 10.1969 11.5543 10.0569 11.7928 10.0023C12.0313 9.94779 12.2814 9.98254 12.496 10.1C13.9103 10.8729 15.4722 11.3378 17.079 11.464C17.3298 11.4839 17.5638 11.5975 17.7345 11.7823C17.9052 11.9671 18 12.2094 18 12.461V16.923C18.0001 17.1706 17.9083 17.4094 17.7424 17.5932C17.5765 17.777 17.3483 17.8927 17.102 17.918C16.572 17.973 16.038 18 15.5 18C6.94 18 0 11.06 0 2.5C0 1.962 0.027 1.428 0.082 0.898C0.107255 0.651697 0.222984 0.423521 0.40679 0.257634C0.590595 0.0917472 0.829406 -5.33578e-05 1.077 2.32673e-08H5.539C5.79056 -3.15185e-05 6.0329 0.0947515 6.21768 0.265451C6.40247 0.43615 6.51613 0.670224 6.536 0.921C6.66222 2.52779 7.12708 4.08968 7.9 5.504C8.01746 5.71856 8.05221 5.96874 7.99767 6.2072C7.94312 6.44565 7.80306 6.65584 7.604 6.798L6.366 7.682ZM3.844 7.025L5.744 5.668C5.20478 4.50409 4.83535 3.26884 4.647 2H2.01C2.004 2.166 2.001 2.333 2.001 2.5C2 9.956 8.044 16 15.5 16C15.667 16 15.834 15.997 16 15.99V13.353C14.7312 13.1646 13.4959 12.7952 12.332 12.256L10.975 14.156C10.4287 13.9437 9.89801 13.6931 9.387 13.406L9.329 13.373C7.36758 12.2567 5.74328 10.6324 4.627 8.671L4.594 8.613C4.30691 8.10199 4.05628 7.57134 3.844 7.025Z" fill="#09121F"/>
</symbol>

<symbol id = "gps" width="18" height="22" viewBox="0 0 18 22" fill="none" xmlns="http://www.w3.org/2000/svg">
<path d="M9 18.9L13.95 13.95C14.9289 12.971 15.5955 11.7237 15.8656 10.3659C16.1356 9.00803 15.9969 7.6006 15.4671 6.32155C14.9373 5.04251 14.04 3.9493 12.8889 3.18017C11.7378 2.41103 10.3844 2.0005 9 2.0005C7.61557 2.0005 6.26222 2.41103 5.11109 3.18017C3.95996 3.9493 3.06275 5.04251 2.53292 6.32155C2.00308 7.6006 1.86442 9.00803 2.13445 10.3659C2.40449 11.7237 3.07111 12.971 4.05 13.95L9 18.9ZM9 21.728L2.636 15.364C1.37734 14.1053 0.520187 12.5017 0.172928 10.7558C-0.17433 9.01002 0.00390685 7.20043 0.685099 5.5559C1.36629 3.91137 2.51984 2.50577 3.99988 1.51684C5.47992 0.527914 7.21998 7.62939e-05 9 7.62939e-05C10.78 7.62939e-05 12.5201 0.527914 14.0001 1.51684C15.4802 2.50577 16.6337 3.91137 17.3149 5.5559C17.9961 7.20043 18.1743 9.01002 17.8271 10.7558C17.4798 12.5017 16.6227 14.1053 15.364 15.364L9 21.728ZM9 11C9.53044 11 10.0391 10.7893 10.4142 10.4142C10.7893 10.0391 11 9.53043 11 9C11 8.46957 10.7893 7.96086 10.4142 7.58578C10.0391 7.21071 9.53044 7 9 7C8.46957 7 7.96086 7.21071 7.58579 7.58578C7.21072 7.96086 7 8.46957 7 9C7 9.53043 7.21072 10.0391 7.58579 10.4142C7.96086 10.7893 8.46957 11 9 11ZM9 13C7.93914 13 6.92172 12.5786 6.17158 11.8284C5.42143 11.0783 5 10.0609 5 9C5 7.93913 5.42143 6.92172 6.17158 6.17157C6.92172 5.42143 7.93914 5 9 5C10.0609 5 11.0783 5.42143 11.8284 6.17157C12.5786 6.92172 13 7.93913 13 9C13 10.0609 12.5786 11.0783 11.8284 11.8284C11.0783 12.5786 10.0609 13 9 13Z" fill="#09121F"/>
</symbol>

<symbol id = "envelope" width="20" height="18" viewBox="0 0 20 18" fill="none" xmlns="http://www.w3.org/2000/svg">
<path d="M1 0H19C19.2652 0 19.5196 0.105357 19.7071 0.292893C19.8946 0.48043 20 0.734784 20 1V17C20 17.2652 19.8946 17.5196 19.7071 17.7071C19.5196 17.8946 19.2652 18 19 18H1C0.734784 18 0.48043 17.8946 0.292893 17.7071C0.105357 17.5196 0 17.2652 0 17V1C0 0.734784 0.105357 0.48043 0.292893 0.292893C0.48043 0.105357 0.734784 0 1 0ZM18 4.238L10.072 11.338L2 4.216V16H18V4.238ZM2.511 2L10.061 8.662L17.502 2H2.511Z" fill="#09121F"/>
</symbol>

<symbol id = "arrow" width="24" height="24" viewBox="0 0 24 24" fill="none" xmlns="http://www.w3.org/2000/svg">
<path fill-rule="evenodd" clip-rule="evenodd" d="M12.7071 15.7071C12.3166 16.0976 11.6834 16.0976 11.2929 15.7071L5.63604 10.0503C5.24551 9.65973 5.24551 9.02657 5.63604 8.63604C6.02656 8.24552 6.65973 8.24552 7.05025 8.63604L12 13.5858L16.9497 8.63604C17.3403 8.24552 17.9734 8.24552 18.364 8.63604C18.7545 9.02656 18.7545 9.65973 18.364 10.0503L12.7071 15.7071Z" fill="#09121F"/>
</symbol>

<symbol id = "big-envelope" width="31" height="31" viewBox="0 0 31 31" fill="none" xmlns="http://www.w3.org/2000/svg">
<path fill-rule="evenodd" clip-rule="evenodd" d="M5.16667 5.16669C3.73993 5.16669 2.58333 6.32328 2.58333 7.75002V10.3334H5.16667V9.57671L14.1301 18.5401C14.8867 19.2968 16.1135 19.2968 16.8701 18.5401L25.8333 9.57691V23.25H5.16667V21.9584H2.58333V23.25C2.58333 24.6768 3.73993 25.8334 5.16667 25.8334H25.8333C27.2601 25.8334 28.4167 24.6768 28.4167 23.25V7.75002C28.4167 6.32328 27.2601 5.16669 25.8333 5.16669H5.16667ZM24.0068 7.75002H6.99336L15.5001 16.2568L24.0068 7.75002Z" fill="#C7CAD1"/>
<path d="M2.58333 12.9167C1.86997 12.9167 1.29167 13.495 1.29167 14.2084C1.29167 14.9217 1.86997 15.5 2.58333 15.5H6.45833C7.1717 15.5 7.75 14.9217 7.75 14.2084C7.75 13.495 7.1717 12.9167 6.45833 12.9167H2.58333Z" fill="#C7CAD1"/>
<path d="M0 18.0834C0 17.37 0.578299 16.7917 1.29167 16.7917H7.75C8.46337 16.7917 9.04167 17.37 9.04167 18.0834C9.04167 18.7967 8.46337 19.375 7.75 19.375H1.29167C0.578299 19.375 0 18.7967 0 18.0834Z" fill="#C7CAD1"/>
</symbol>

</svg>