<svg width="21" height="22" viewBox="0 0 21 22" fill="none" xmlns="http://www.w3.org/2000/svg">
<path d="M17.7561 3.63334C15.7993 1.68334 13.1902 0.600006 10.4362 0.600006C4.7108 0.600006 0.0724728 5.22223 0.0724728 10.9278C0.0724728 12.7333 0.579791 14.5389 1.44948 16.0556L0 21.4L5.50802 19.9556C7.02997 20.75 8.69686 21.1833 10.4362 21.1833C16.1617 21.1833 20.8 16.5611 20.8 10.8556C20.7275 8.18334 19.7129 5.58334 17.7561 3.63334ZM15.4369 14.6111C15.2195 15.1889 14.2049 15.7667 13.6976 15.8389C13.2627 15.9111 12.6829 15.9111 12.1031 15.7667C11.7408 15.6222 11.2334 15.4778 10.6537 15.1889C8.0446 14.1056 6.3777 11.5056 6.23275 11.2889C6.08781 11.1444 5.14565 9.91667 5.14565 8.61667C5.14565 7.31667 5.79791 6.73889 6.01533 6.45C6.23275 6.16112 6.52265 6.16112 6.74007 6.16112C6.88502 6.16112 7.10244 6.16112 7.24738 6.16112C7.39233 6.16112 7.60975 6.08889 7.82718 6.59445C8.0446 7.10001 8.55191 8.40001 8.62439 8.47223C8.69686 8.61667 8.69686 8.76112 8.62439 8.90556C8.55191 9.05001 8.47944 9.19445 8.33449 9.33889C8.18954 9.48334 8.0446 9.7 7.97212 9.77223C7.82717 9.91667 7.68223 10.0611 7.82718 10.2778C7.97212 10.5667 8.47944 11.3611 9.27665 12.0833C10.2913 12.95 11.0885 13.2389 11.3784 13.3833C11.6683 13.5278 11.8132 13.4556 11.9582 13.3111C12.1031 13.1667 12.6105 12.5889 12.7554 12.3C12.9003 12.0111 13.1178 12.0833 13.3352 12.1556C13.5526 12.2278 14.8571 12.8778 15.0746 13.0222C15.3645 13.1667 15.5094 13.2389 15.5819 13.3111C15.6544 13.5278 15.6544 14.0333 15.4369 14.6111Z" fill="#48D107"/>
</svg>
